<svg width="230" height="75" viewBox="0 0 230 75" fill="none" xmlns="http://www.w3.org/2000/svg">
<g clip-path="url(#clip0_13_10143)">
<path d="M0 66.9367C2.29163 56.2237 9.32709 38.6203 76.9229 33.8774C76.9229 33.8774 112.12 15.8698 129.261 12.3832C183.087 1.44623 205.429 26.1202 230 24.6934C218.683 32.0416 139.313 31.9296 121.573 38.4888C132.024 33.3661 183 24.9953 197.577 25.4044C181.365 16.834 169.162 10.1919 130.287 15.3049C119.491 16.722 97.3043 26.276 90.6289 32.8061C90.7797 35.6109 93.4314 37.7535 102.253 38.2648C102.253 38.2648 93.6893 39.94 85.0239 38.4888C76.3585 37.0377 39.4005 42.2432 27.1687 47.702C39.9649 47.0397 56.5804 56.8324 53.2184 71.7332C52.8097 69.8974 49.5742 53.0439 28.137 50.8136C9.48278 48.8756 0 66.9367 0 66.9367ZM106.004 29.6506C104.846 29.6068 103.683 29.6506 102.569 29.787C106.85 30.3323 108.743 32.2169 108.743 32.2169C108.743 32.2169 106.88 35.1824 102.248 35.9421C103.196 36.0589 104.16 36.1174 105.074 36.1174C111.346 36.1174 113.793 32.2169 113.793 32.2169C113.793 32.2169 111.434 29.8551 106.009 29.6555L106.004 29.6506Z" fill="url(#paint0_linear_13_10143)"/>
<path d="M66.9927 14.5794C65.0513 15.7822 63.2414 17.1408 61.5531 18.6406L56.9017 16.8779C59.0912 15.1979 61.4314 13.6932 63.9226 12.3833L66.9927 14.5794ZM54.9604 18.4459C52.8536 20.2525 50.9172 22.2441 49.1608 24.4013L55.7826 24.9905C57.106 23.1937 58.5462 21.5283 60.0983 20.0041L54.9604 18.4459ZM73.96 8.35617C71.2256 9.14991 68.608 10.1384 66.1169 11.2974L68.754 13.552C70.8023 12.4222 72.9772 11.4435 75.2834 10.6302L73.96 8.35617ZM92.0352 5.88245C90.8967 5.88245 89.7727 5.91653 88.6586 5.9701L88.3569 7.85948C90.5172 7.65496 92.7601 7.54783 95.0858 7.54783C96.6671 7.54783 98.2289 7.60139 99.7664 7.70852L100.705 6.4327C97.8981 6.07236 95.0031 5.88245 92.04 5.88245H92.0352ZM47.453 26.6462C45.8279 28.9202 44.3877 31.355 43.1665 33.9602C45.6819 33.4635 48.6061 32.6454 51.4329 32.2023C52.3671 30.3032 53.3937 28.5112 54.5128 26.8263L47.4578 26.6462H47.453ZM86.0993 6.13566C82.7227 6.42297 79.4628 6.95375 76.3441 7.71826L77.3415 9.95825C80.0613 9.1353 82.9562 8.52174 86.0166 8.11757L86.0993 6.13079V6.13566ZM102.948 8.00557C107.96 8.58504 112.699 9.70991 117.024 11.2876C117.214 11.2243 117.404 11.1562 117.598 11.0929C113.463 9.23269 108.855 7.81565 103.926 6.9294L102.953 8.00557H102.948Z" fill="#F7F7F7"/>
<path d="M72.7191 6.22814C69.7074 7.13388 66.8173 8.249 64.0878 9.55891L57.6605 4.0612C61.5042 2.75129 65.5328 1.73843 69.7025 1.05182L72.7191 6.22814ZM54.0114 15.7822C56.376 13.9318 58.9499 12.2615 61.6891 10.7812L54.1233 5.36624C49.9487 7.03162 46.0175 9.05248 42.3976 11.3801L54.0065 15.7822H54.0114ZM45.6817 24.0945C47.5112 21.7425 49.5984 19.5463 51.9144 17.5206L39.1085 13.6445C35.4497 16.3324 32.1606 19.3467 29.3143 22.6434L45.6817 24.0945ZM106.768 3.7885L105.595 5.0838C110.709 6.22814 115.525 7.96657 119.919 10.2163C120.177 10.153 120.43 10.0897 120.678 10.0313C116.401 7.50883 111.73 5.41493 106.768 3.79337V3.7885ZM89.5682 0.306781L89.0476 3.55964C89.8066 3.53529 90.5753 3.52068 91.3392 3.52068C95.0516 3.52068 98.6763 3.83233 102.175 4.41667L103.381 2.7659C98.9683 1.55338 94.3412 0.720692 89.5633 0.306781H89.5682ZM75.3513 5.49771C78.8301 4.61633 82.4598 4.0125 86.2013 3.7252L86.357 0.0973908C85.126 0.0389563 83.8853 0 82.6398 0C79.4188 0 76.2563 0.194782 73.1619 0.564867L75.3562 5.50258L75.3513 5.49771ZM26.5459 26.1202C23.3833 30.4492 20.9409 35.1727 19.3547 40.1835C24.7505 38.1042 31.4308 36.205 39.6972 34.5932C40.7774 31.7835 42.1883 29.0955 43.8913 26.5585L26.5508 26.1202H26.5459Z" fill="url(#paint1_linear_13_10143)"/>
<path d="M87.2717 24.0994L82.0705 26.651L37.0066 19.2834L87.2717 24.0994Z" fill="#AD2323"/>
<path d="M71.3966 70.2272V60.242H67.4587V57.9214H78.1823V60.242H74.2445V70.2272H71.3966ZM82.334 62.8789H88.2583V65.0939H82.334V62.8789ZM82.5449 67.9418H89.2428V70.2272H79.7146V57.9214H89.0142V60.2068H82.5449V67.9418ZM94.1281 62.8789H100.052V65.0939H94.1281V62.8789ZM94.3391 67.9418H101.037V70.2272H91.5088V57.9214H100.808V60.2068H94.3391V67.9418ZM103.303 70.2272V57.9214H105.659L112.919 66.7816H111.776V57.9214H114.589V70.2272H112.251L104.973 61.367H106.116V70.2272H103.303ZM115.883 70.2272L121.368 57.9214H124.181L129.683 70.2272H126.695L122.194 59.363H123.319L118.801 70.2272H115.883ZM118.626 67.5902L119.382 65.4279H125.71L126.484 67.5902H118.626ZM136.73 70.4381C135.757 70.4381 134.861 70.2858 134.04 69.9811C133.232 69.6646 132.523 69.2193 131.913 68.645C131.316 68.0707 130.847 67.3969 130.507 66.6234C130.179 65.8498 130.015 65.0002 130.015 64.0743C130.015 63.1484 130.179 62.2988 130.507 61.5253C130.847 60.7518 131.321 60.0779 131.931 59.5036C132.54 58.9293 133.255 58.4898 134.076 58.1851C134.896 57.8687 135.798 57.7105 136.783 57.7105C137.873 57.7105 138.851 57.8921 139.719 58.2555C140.598 58.6188 141.336 59.1462 141.934 59.8376L140.105 61.5253C139.66 61.0565 139.174 60.7107 138.646 60.4881C138.119 60.2537 137.545 60.1365 136.923 60.1365C136.326 60.1365 135.781 60.2302 135.289 60.4177C134.796 60.6053 134.369 60.8748 134.005 61.2264C133.654 61.578 133.378 61.9941 133.179 62.4746C132.992 62.9551 132.898 63.4883 132.898 64.0743C132.898 64.6486 132.992 65.176 133.179 65.6565C133.378 66.137 133.654 66.5589 134.005 66.9222C134.369 67.2738 134.791 67.5434 135.271 67.7309C135.763 67.9184 136.302 68.0121 136.888 68.0121C137.451 68.0121 137.996 67.9242 138.523 67.7484C139.062 67.5609 139.584 67.2504 140.088 66.8167L141.705 68.8735C141.037 69.3775 140.258 69.7642 139.367 70.0338C138.488 70.3034 137.609 70.4381 136.73 70.4381ZM139.103 68.5044V63.8809H141.705V68.8735L139.103 68.5044ZM146.97 62.8789H152.894V65.0939H146.97V62.8789ZM147.181 67.9418H153.879V70.2272H144.351V57.9214H153.65V60.2068H147.181V67.9418ZM165.167 70.4381C164.182 70.4381 163.239 70.3092 162.336 70.0514C161.434 69.7818 160.707 69.4361 160.156 69.0142L161.123 66.8695C161.651 67.2445 162.272 67.5551 162.987 67.8012C163.713 68.0356 164.446 68.1528 165.184 68.1528C165.747 68.1528 166.198 68.1 166.538 67.9946C166.889 67.8774 167.147 67.7191 167.311 67.5199C167.475 67.3207 167.557 67.0921 167.557 66.8343C167.557 66.5062 167.429 66.2483 167.171 66.0608C166.913 65.8616 166.573 65.7034 166.151 65.5862C165.729 65.4572 165.26 65.34 164.745 65.2346C164.241 65.1174 163.731 64.9767 163.215 64.8127C162.711 64.6486 162.248 64.4376 161.827 64.1798C161.405 63.922 161.059 63.5821 160.789 63.1602C160.531 62.7383 160.403 62.1991 160.403 61.5428C160.403 60.8397 160.59 60.2009 160.965 59.6267C161.352 59.0407 161.926 58.5777 162.688 58.2379C163.461 57.8863 164.428 57.7105 165.589 57.7105C166.362 57.7105 167.124 57.8042 167.874 57.9918C168.624 58.1676 169.286 58.4371 169.86 58.8004L168.981 60.9627C168.407 60.6346 167.833 60.3943 167.259 60.242C166.684 60.0779 166.122 59.9958 165.571 59.9958C165.02 59.9958 164.569 60.0603 164.217 60.1892C163.866 60.3181 163.614 60.4881 163.461 60.699C163.309 60.8983 163.233 61.1327 163.233 61.4022C163.233 61.7186 163.362 61.9765 163.62 62.1757C163.877 62.3632 164.217 62.5156 164.639 62.6328C165.061 62.75 165.524 62.8672 166.028 62.9844C166.544 63.1016 167.054 63.2363 167.557 63.3887C168.073 63.5411 168.542 63.7462 168.964 64.004C169.386 64.2618 169.726 64.6017 169.983 65.0236C170.253 65.4455 170.388 65.9788 170.388 66.6234C170.388 67.3148 170.194 67.9477 169.808 68.522C169.421 69.0962 168.841 69.5591 168.067 69.9107C167.306 70.2623 166.339 70.4381 165.167 70.4381ZM170.716 70.2272L176.201 57.9214H179.014L184.516 70.2272H181.528L177.028 59.363H178.153L173.635 70.2272H170.716ZM173.459 67.5902L174.215 65.4279H180.543L181.317 67.5902H173.459ZM188.43 63.459H194.337V65.7444H188.43V63.459ZM188.641 70.2272H185.793V57.9214H195.093V60.2068H188.641V70.2272ZM199.64 62.8789H205.564V65.0939H199.64V62.8789ZM199.851 67.9418H206.549V70.2272H197.021V57.9214H206.32V60.2068H199.851V67.9418ZM211.364 70.2272V60.242H207.426V57.9214H218.15V60.242H214.212V70.2272H211.364ZM222.518 70.2272V65.1994L223.168 66.9222L217.754 57.9214H220.777L224.926 64.8302H223.186L227.352 57.9214H230.147L224.733 66.9222L225.366 65.1994V70.2272H222.518Z" fill="url(#paint2_linear_13_10143)"/>
</g>
<defs>
<linearGradient id="paint0_linear_13_10143" x1="0" y1="40.6558" x2="230" y2="40.6558" gradientUnits="userSpaceOnUse">
<stop stop-color="#FFE100" stop-opacity="0.9"/>
<stop offset="0.5" stop-color="#FFE100" stop-opacity="0.8"/>
<stop offset="1" stop-color="#FFE100" stop-opacity="0.9"/>
</linearGradient>
<linearGradient id="paint1_linear_13_10143" x1="19.3547" y1="20.0917" x2="120.678" y2="20.0917" gradientUnits="userSpaceOnUse">
<stop stop-color="#FFE100" stop-opacity="0.9"/>
<stop offset="0.5" stop-color="#FFE100" stop-opacity="0.8"/>
<stop offset="1" stop-color="#FFE100" stop-opacity="0.9"/>
</linearGradient>
<linearGradient id="paint2_linear_13_10143" x1="67.3884" y1="63.7272" x2="230.388" y2="63.7272" gradientUnits="userSpaceOnUse">
<stop stop-color="#FFE100" stop-opacity="0.9"/>
<stop offset="0.5" stop-color="#FFE100" stop-opacity="0.8"/>
<stop offset="1" stop-color="#FFE100" stop-opacity="0.9"/>
</linearGradient>
<clipPath id="clip0_13_10143">
<rect width="230" height="74.7134" fill="white"/>
</clipPath>
</defs>
</svg>
