<svg width="24" height="24" viewBox="0 0 24 24" fill="none" xmlns="http://www.w3.org/2000/svg">
<path d="M8 9.5C7.66848 9.5 7.35054 9.6317 7.11612 9.86612C6.8817 10.1005 6.75 10.4185 6.75 10.75C6.75 11.0815 6.8817 11.3995 7.11612 11.6339C7.35054 11.8683 7.66848 12 8 12C8.33152 12 8.64946 11.8683 8.88388 11.6339C9.1183 11.3995 9.25 11.0815 9.25 10.75C9.25 10.4185 9.1183 10.1005 8.88388 9.86612C8.64946 9.6317 8.33152 9.5 8 9.5ZM12 9.5C11.6685 9.5 11.3505 9.6317 11.1161 9.86612C10.8817 10.1005 10.75 10.4185 10.75 10.75C10.75 11.0815 10.8817 11.3995 11.1161 11.6339C11.3505 11.8683 11.6685 12 12 12C12.3315 12 12.6495 11.8683 12.8839 11.6339C13.1183 11.3995 13.25 11.0815 13.25 10.75C13.25 10.4185 13.1183 10.1005 12.8839 9.86612C12.6495 9.6317 12.3315 9.5 12 9.5ZM14.75 10.75C14.75 10.4185 14.8817 10.1005 15.1161 9.86612C15.3505 9.6317 15.6685 9.5 16 9.5C16.3315 9.5 16.6495 9.6317 16.8839 9.86612C17.1183 10.1005 17.25 10.4185 17.25 10.75C17.25 11.0815 17.1183 11.3995 16.8839 11.6339C16.6495 11.8683 16.3315 12 16 12C15.6685 12 15.3505 11.8683 15.1161 11.6339C14.8817 11.3995 14.75 11.0815 14.75 10.75Z" fill="#92A5B5"/>
<path fill-rule="evenodd" clip-rule="evenodd" d="M16.1 4.59304C13.4061 4.36337 10.6981 4.35 8.002 4.55304L7.809 4.56804C6.56941 4.66158 5.41091 5.21997 4.56552 6.13138C3.72013 7.04278 3.25026 8.23992 3.25 9.48304V18C3.25011 18.1297 3.28384 18.2571 3.34788 18.3698C3.41193 18.4826 3.5041 18.5768 3.61541 18.6433C3.72673 18.7097 3.85337 18.7462 3.983 18.7492C4.11262 18.7521 4.24079 18.7214 4.355 18.66L8.265 16.559C8.44728 16.461 8.65105 16.4098 8.858 16.41H17.834C18.966 16.41 19.936 15.6 20.139 14.487C20.551 12.23 20.583 9.92004 20.235 7.65204L20.133 6.98304C20.0423 6.392 19.7556 5.84861 19.3189 5.44018C18.8821 5.03174 18.3208 4.78199 17.725 4.73104L16.1 4.59304ZM8.116 6.04904C10.7321 5.85131 13.3599 5.86402 15.974 6.08704L17.598 6.22604C18.134 6.27204 18.57 6.67904 18.651 7.21104L18.754 7.87904C19.0755 9.98243 19.045 12.1246 18.664 14.218C18.6292 14.4124 18.527 14.5883 18.3754 14.7149C18.2238 14.8414 18.0325 14.9105 17.835 14.91H8.858C8.40357 14.9101 7.95623 15.0228 7.556 15.238L4.75 16.746V9.48304C4.75005 8.61821 5.07679 7.78533 5.66479 7.15116C6.25279 6.51699 7.05865 6.12834 7.921 6.06304L8.116 6.04904Z" fill="#92A5B5"/>
</svg>
