<svg width="22" height="22" viewBox="0 0 22 22" fill="none" xmlns="http://www.w3.org/2000/svg">
<path d="M3.5 3.50002C3.5 2.70437 3.81607 1.94131 4.37868 1.3787C4.94129 0.816087 5.70435 0.500017 6.5 0.500017C7.29565 0.500017 8.05871 0.816087 8.62132 1.3787C9.18393 1.94131 9.5 2.70437 9.5 3.50002C9.5 4.29567 9.18393 5.05873 8.62132 5.62134C8.05871 6.18395 7.29565 6.50002 6.5 6.50002C5.70435 6.50002 4.94129 6.18395 4.37868 5.62134C3.81607 5.05873 3.5 4.29567 3.5 3.50002ZM6.5 2.00002C6.10218 2.00002 5.72064 2.15805 5.43934 2.43936C5.15804 2.72066 5 3.10219 5 3.50002C5 3.89784 5.15804 4.27937 5.43934 4.56068C5.72064 4.84198 6.10218 5.00002 6.5 5.00002C6.89782 5.00002 7.27936 4.84198 7.56066 4.56068C7.84196 4.27937 8 3.89784 8 3.50002C8 3.10219 7.84196 2.72066 7.56066 2.43936C7.27936 2.15805 6.89782 2.00002 6.5 2.00002ZM13.6685 5.87602C13.3542 5.63631 13.0904 5.33686 12.8923 4.99488C12.6941 4.65291 12.5655 4.27514 12.5137 3.88329C12.462 3.49145 12.4882 3.09324 12.5909 2.71156C12.6935 2.32987 12.8706 1.97224 13.1119 1.6592C13.3532 1.34616 13.654 1.08389 13.997 0.887455C14.3399 0.691021 14.7184 0.564297 15.1105 0.514565C15.5026 0.464834 15.9006 0.493074 16.2818 0.597663C16.663 0.702253 17.0197 0.88113 17.3315 1.12402C17.9454 1.61512 18.3421 2.32761 18.436 3.10817C18.53 3.88873 18.3138 4.67499 17.8339 5.29776C17.3541 5.92053 16.6489 6.33005 15.8702 6.43819C15.0915 6.54633 14.2999 6.34446 13.6685 5.87602ZM15.5 2.00002C15.1022 2.00002 14.7206 2.15805 14.4393 2.43936C14.158 2.72066 14 3.10219 14 3.50002C14 3.89784 14.158 4.27937 14.4393 4.56068C14.7206 4.84198 15.1022 5.00002 15.5 5.00002C15.8978 5.00002 16.2794 4.84198 16.5607 4.56068C16.842 4.27937 17 3.89784 17 3.50002C17 3.10219 16.842 2.72066 16.5607 2.43936C16.2794 2.15805 15.8978 2.00002 15.5 2.00002ZM2.75 8.00002H6.755C6.59 8.46952 6.5 8.97502 6.5 9.50002H2.75C2.55109 9.50002 2.36032 9.57903 2.21967 9.71969C2.07902 9.86034 2 10.0511 2 10.25C2 11.4755 2.4875 12.3845 3.257 13.0025C3.611 13.2875 4.0355 13.517 4.5155 13.685C4.16301 14.0597 3.89138 14.5029 3.7175 14.987C3.21369 14.7854 2.74217 14.511 2.318 14.1725C1.19 13.265 0.5 11.924 0.5 10.25C0.5 9.65328 0.737053 9.08098 1.15901 8.65903C1.58097 8.23707 2.15326 8.00002 2.75 8.00002ZM8.402 8.00002C8.00418 8.68945 7.89652 9.50867 8.10272 10.2775C8.30891 11.0463 8.81207 11.7017 9.5015 12.0995C10.1909 12.4973 11.0102 12.605 11.779 12.3988C12.5478 12.1926 13.2032 11.6894 13.601 11C13.9988 10.3106 14.1065 9.49136 13.9003 8.72255C13.6941 7.95375 13.1909 7.29834 12.5015 6.90052C11.8121 6.50269 10.9928 6.39504 10.224 6.60123C9.45523 6.80743 8.79982 7.31059 8.402 8.00002ZM10.664 8.03752C10.8838 7.98787 11.1119 7.98822 11.3315 8.03854C11.5511 8.08886 11.7567 8.18787 11.9329 8.32825C12.1091 8.46864 12.2516 8.64681 12.3497 8.84962C12.4479 9.05244 12.4992 9.2747 12.5 9.50002C12.5 9.61602 12.4875 9.72802 12.4625 9.83602C12.4023 10.0969 12.2734 10.3369 12.0892 10.5311C11.905 10.7254 11.6721 10.8668 11.4148 10.9406C11.1574 11.0145 10.885 11.0181 10.6258 10.9512C10.3666 10.8843 10.13 10.7492 9.94067 10.56C9.75128 10.3707 9.616 10.1343 9.54884 9.87511C9.48169 9.61596 9.48512 9.34355 9.55877 9.08617C9.63243 8.82878 9.77362 8.5958 9.9677 8.4114C10.1618 8.22701 10.4032 8.09791 10.664 8.03752ZM18.7415 13.0025C18.3875 13.2875 17.963 13.517 17.483 13.685C17.8349 14.0598 18.1061 14.503 18.2795 14.987C18.7895 14.7785 19.262 14.507 19.6805 14.1725C20.81 13.265 21.5 11.924 21.5 10.25C21.5 9.65328 21.2629 9.08098 20.841 8.65903C20.419 8.23707 19.8467 8.00002 19.25 8.00002H15.245C15.41 8.46952 15.5 8.97502 15.5 9.50002H19.25C19.4489 9.50002 19.6397 9.57903 19.7803 9.71969C19.921 9.86034 20 10.0511 20 10.25C20 11.4755 19.511 12.3845 18.7415 13.0025ZM14.75 14C15.3467 14 15.919 14.2371 16.341 14.659C16.7629 15.081 17 15.6533 17 16.25C17 17.924 16.3115 19.265 15.182 20.1725C14.0705 21.065 12.5795 21.5 11 21.5C9.4205 21.5 7.9295 21.065 6.818 20.1725C5.69 19.265 5 17.924 5 16.25C4.99921 15.9543 5.05687 15.6614 5.16966 15.388C5.28245 15.1147 5.44815 14.8664 5.65724 14.6573C5.86633 14.4482 6.11469 14.2825 6.38803 14.1697C6.66137 14.0569 6.9543 13.9992 7.25 14H14.75ZM14.75 15.5H7.25C7.05109 15.5 6.86032 15.579 6.71967 15.7197C6.57902 15.8603 6.5 16.0511 6.5 16.25C6.5 17.4755 6.9875 18.3845 7.757 19.0025C8.546 19.6355 9.68 20 11 20C12.32 20 13.454 19.6355 14.243 19.0025C15.0125 18.3845 15.5 17.4755 15.5 16.25C15.5 16.0511 15.421 15.8603 15.2803 15.7197C15.1397 15.579 14.9489 15.5 14.75 15.5Z" fill="#92A5B5"/>
</svg>
