<svg width="20" height="20" viewBox="0 0 20 20" fill="none" xmlns="http://www.w3.org/2000/svg">
<path d="M9.95 16C10.3 16 10.596 15.879 10.838 15.637C11.08 15.395 11.2007 15.0993 11.2 14.75C11.1993 14.4007 11.0787 14.1047 10.838 13.862C10.5973 13.6193 10.3013 13.4987 9.95 13.5C9.59867 13.5013 9.303 13.6223 9.063 13.863C8.823 14.1037 8.702 14.3993 8.7 14.75C8.698 15.1007 8.819 15.3967 9.063 15.638C9.307 15.8793 9.60267 16 9.95 16ZM9.05 12.15H10.9C10.9 11.6 10.9627 11.1667 11.088 10.85C11.2133 10.5333 11.5673 10.1 12.15 9.55C12.5833 9.11666 12.925 8.704 13.175 8.312C13.425 7.92 13.55 7.44933 13.55 6.9C13.55 5.96666 13.2083 5.25 12.525 4.75C11.8417 4.25 11.0333 4 10.1 4C9.15 4 8.37933 4.25 7.788 4.75C7.19667 5.25 6.784 5.85 6.55 6.55L8.2 7.2C8.28333 6.9 8.471 6.575 8.763 6.225C9.055 5.875 9.50067 5.7 10.1 5.7C10.6333 5.7 11.0333 5.846 11.3 6.138C11.5667 6.43 11.7 6.75066 11.7 7.1C11.7 7.43333 11.6 7.746 11.4 8.038C11.2 8.33 10.95 8.60066 10.65 8.85C9.91667 9.5 9.46667 9.99166 9.3 10.325C9.13333 10.6583 9.05 11.2667 9.05 12.15ZM10 20C8.61667 20 7.31667 19.7377 6.1 19.213C4.88334 18.6883 3.825 17.9757 2.925 17.075C2.025 16.1743 1.31267 15.116 0.788001 13.9C0.263335 12.684 0.000667933 11.384 1.26582e-06 10C-0.000665401 8.616 0.262001 7.316 0.788001 6.1C1.314 4.884 2.02633 3.82566 2.925 2.925C3.82367 2.02433 4.882 1.312 6.1 0.787998C7.318 0.263998 8.618 0.00133075 10 -2.57889e-06C11.382 -0.00133591 12.682 0.261331 13.9 0.787998C15.118 1.31466 16.1763 2.027 17.075 2.925C17.9737 3.823 18.6863 4.88133 19.213 6.1C19.7397 7.31866 20.002 8.61866 20 10C19.998 11.3813 19.7353 12.6813 19.212 13.9C18.6887 15.1187 17.9763 16.177 17.075 17.075C16.1737 17.973 15.1153 18.6857 13.9 19.213C12.6847 19.7403 11.3847 20.0027 10 20ZM10 18C12.2333 18 14.125 17.225 15.675 15.675C17.225 14.125 18 12.2333 18 10C18 7.76666 17.225 5.875 15.675 4.325C14.125 2.775 12.2333 2 10 2C7.76667 2 5.875 2.775 4.325 4.325C2.775 5.875 2 7.76666 2 10C2 12.2333 2.775 14.125 4.325 15.675C5.875 17.225 7.76667 18 10 18Z" fill="#92A5B5"/>
</svg>
