<svg width="26" height="26" viewBox="0 0 26 26" fill="none" xmlns="http://www.w3.org/2000/svg">
<path d="M13 0C11.4087 0 9.88258 0.632141 8.75736 1.75736C7.63214 2.88258 7 4.4087 7 6C7 9.314 12.219 17.543 12.219 22H13.781C13.781 17.558 19 9.044 19 6C19 4.4087 18.3679 2.88258 17.2426 1.75736C16.1174 0.632141 14.5913 0 13 0ZM13 3C13.7956 3 14.5587 3.31607 15.1213 3.87868C15.6839 4.44129 16 5.20435 16 6C16 6.79565 15.6839 7.55871 15.1213 8.12132C14.5587 8.68393 13.7956 9 13 9C12.2044 9 11.4413 8.68393 10.8787 8.12132C10.3161 7.55871 10 6.79565 10 6C10 5.20435 10.3161 4.44129 10.8787 3.87868C11.4413 3.31607 12.2044 3 13 3ZM6.844 17.281L6.781 17.313C4.936 17.637 3.372 18.081 2.188 18.688C1.595 18.991 1.084 19.35 0.688 19.781C0.291 20.213 0 20.774 0 21.406C0 22.354 0.628 23.095 1.375 23.625C2.122 24.155 3.065 24.56 4.219 24.906C6.524 25.598 9.605 26 13 26C16.395 26 19.476 25.598 21.781 24.906C22.934 24.56 23.878 24.156 24.625 23.625C25.372 23.094 26 22.354 26 21.406C26 20.772 25.71 20.182 25.312 19.75C24.914 19.318 24.408 18.991 23.812 18.687C22.622 18.08 21.043 17.636 19.187 17.312C19.0565 17.2867 18.9223 17.2877 18.7922 17.3149C18.662 17.3421 18.5387 17.3949 18.4292 17.4704C18.3198 17.5458 18.2265 17.6423 18.1548 17.7542C18.083 17.8662 18.0344 17.9912 18.0116 18.1222C17.9888 18.2532 17.9923 18.3873 18.022 18.5169C18.0516 18.6465 18.1068 18.7688 18.1843 18.8768C18.2618 18.9848 18.3601 19.0763 18.4734 19.1458C18.5866 19.2154 18.7126 19.2617 18.844 19.282C20.567 19.582 21.999 20.007 22.906 20.469C23.36 20.699 23.679 20.946 23.844 21.125C24.009 21.304 24 21.375 24 21.406C24 21.453 23.936 21.669 23.469 22C23.002 22.331 22.206 22.694 21.187 23C19.15 23.611 16.232 24 13 24C9.768 24 6.85 23.611 4.812 23C3.794 22.694 2.998 22.331 2.532 22C2.064 21.669 2 21.453 2 21.406C2 21.376 1.993 21.303 2.156 21.125C2.32 20.947 2.643 20.699 3.094 20.469C3.994 20.008 5.412 19.583 7.125 19.281C7.25825 19.2648 7.38694 19.2222 7.50355 19.1558C7.62016 19.0893 7.72235 19.0002 7.80414 18.8938C7.88593 18.7873 7.94568 18.6657 7.9799 18.5359C8.01413 18.4061 8.02213 18.2708 8.00346 18.1378C7.98478 18.0049 7.9398 17.877 7.87113 17.7617C7.80247 17.6464 7.7115 17.5459 7.60355 17.4661C7.49559 17.3863 7.37282 17.3289 7.24241 17.2971C7.11199 17.2653 6.97655 17.2598 6.844 17.281Z" fill="#92A5B5"/>
</svg>
