<svg width="24" height="24" viewBox="0 0 24 24" fill="none" xmlns="http://www.w3.org/2000/svg">
<path d="M13 9C13 9.26522 12.8946 9.51957 12.7071 9.70711C12.5196 9.89464 12.2652 10 12 10C11.7348 10 11.4804 9.89464 11.2929 9.70711C11.1054 9.51957 11 9.26522 11 9C11 8.73478 11.1054 8.48043 11.2929 8.29289C11.4804 8.10536 11.7348 8 12 8C12.2652 8 12.5196 8.10536 12.7071 8.29289C12.8946 8.48043 13 8.73478 13 9Z" stroke="#92A5B5" stroke-width="2" stroke-linejoin="round"/>
<path d="M17.5 9.5C17.5 12.538 15.5 16 12 20C8.5 16 6.5 12.538 6.5 9.5C6.5 8.04131 7.07946 6.64236 8.11091 5.61091C9.14236 4.57946 10.5413 4 12 4C13.4587 4 14.8576 4.57946 15.8891 5.61091C16.9205 6.64236 17.5 8.04131 17.5 9.5Z" stroke="#92A5B5" stroke-width="2" stroke-linejoin="round"/>
</svg>
