<svg width="22" height="22" viewBox="0 0 22 22" fill="none" xmlns="http://www.w3.org/2000/svg">
<path d="M9.9998 21.95V19.95C7.91647 19.7167 6.1288 18.8543 4.6368 17.363C3.1448 15.8717 2.28247 14.084 2.0498 12H0.0498047V9.99999H2.0498C2.28314 7.91665 3.1458 6.12899 4.6378 4.63699C6.12981 3.14499 7.91714 2.28265 9.9998 2.04999V0.0499878H11.9998V2.04999C14.0831 2.28332 15.8708 3.14599 17.3628 4.63799C18.8548 6.12999 19.7171 7.91732 19.9498 9.99999H21.9498V12H19.9498C19.7165 14.0833 18.8541 15.871 17.3628 17.363C15.8715 18.855 14.0838 19.7173 11.9998 19.95V21.95H9.9998ZM10.9998 18C12.9331 18 14.5831 17.3167 15.9498 15.95C17.3165 14.5833 17.9998 12.9333 17.9998 11C17.9998 9.06665 17.3165 7.41665 15.9498 6.04999C14.5831 4.68332 12.9331 3.99999 10.9998 3.99999C9.06647 3.99999 7.41647 4.68332 6.0498 6.04999C4.68314 7.41665 3.9998 9.06665 3.9998 11C3.9998 12.9333 4.68314 14.5833 6.0498 15.95C7.41647 17.3167 9.06647 18 10.9998 18ZM10.9998 15C9.8998 15 8.95814 14.6083 8.1748 13.825C7.39147 13.0417 6.9998 12.1 6.9998 11C6.9998 9.89999 7.39147 8.95832 8.1748 8.17499C8.95814 7.39165 9.8998 6.99999 10.9998 6.99999C12.0998 6.99999 13.0415 7.39165 13.8248 8.17499C14.6081 8.95832 14.9998 9.89999 14.9998 11C14.9998 12.1 14.6081 13.0417 13.8248 13.825C13.0415 14.6083 12.0998 15 10.9998 15Z" fill="#21879D"/>
</svg>
