<svg width="16" height="13" viewBox="0 0 16 13" fill="none" xmlns="http://www.w3.org/2000/svg">
<path fill-rule="evenodd" clip-rule="evenodd" d="M5.5 4.5C5.89782 4.5 6.27936 4.34196 6.56066 4.06066C6.84196 3.77936 7 3.39782 7 3C7 2.60218 6.84196 2.22064 6.56066 1.93934C6.27936 1.65804 5.89782 1.5 5.5 1.5C5.10218 1.5 4.72064 1.65804 4.43934 1.93934C4.15804 2.22064 4 2.60218 4 3C4 3.39782 4.15804 3.77936 4.43934 4.06066C4.72064 4.34196 5.10218 4.5 5.5 4.5ZM5.5 6C6.29565 6 7.05871 5.68393 7.62132 5.12132C8.18393 4.55871 8.5 3.79565 8.5 3C8.5 2.20435 8.18393 1.44129 7.62132 0.87868C7.05871 0.316071 6.29565 0 5.5 0C4.70435 0 3.94129 0.316071 3.37868 0.87868C2.81607 1.44129 2.5 2.20435 2.5 3C2.5 3.79565 2.81607 4.55871 3.37868 5.12132C3.94129 5.68393 4.70435 6 5.5 6ZM2.471 8.886C1.694 9.426 1.5 9.949 1.5 10.192C1.5 10.638 1.862 11 2.308 11H8.692C8.90613 10.9995 9.11134 10.9142 9.26276 10.7628C9.41417 10.6113 9.49947 10.4061 9.5 10.192C9.5 9.948 9.306 9.425 8.529 8.886C7.792 8.375 6.719 8 5.5 8C4.281 8 3.208 8.375 2.471 8.886ZM0 10.192C0 8.346 2.475 6.5 5.5 6.5C6.68 6.5 7.778 6.781 8.677 7.234C9.53789 6.74734 10.5111 6.4943 11.5 6.5C13.975 6.5 16 8.038 16 9.577C16 10.087 15.7974 10.5761 15.4368 10.9368C15.0761 11.2974 14.587 11.5 14.077 11.5H10.594C10.178 12.104 9.481 12.5 8.692 12.5H2.308C1.69604 12.4995 1.1093 12.2561 0.676582 11.8234C0.243863 11.3907 0.000529604 10.804 0 10.192ZM10.991 10H14.077C14.311 10 14.5 9.81 14.5 9.577C14.5 9.474 14.404 9.105 13.812 8.687C13.258 8.294 12.437 8 11.5 8C10.983 8 10.501 8.09 10.08 8.236C10.606 8.77 10.934 9.382 10.991 10ZM12.5 3.5C12.5 3.76522 12.3946 4.01957 12.2071 4.20711C12.0196 4.39464 11.7652 4.5 11.5 4.5C11.2348 4.5 10.9804 4.39464 10.7929 4.20711C10.6054 4.01957 10.5 3.76522 10.5 3.5C10.5 3.23478 10.6054 2.98043 10.7929 2.79289C10.9804 2.60536 11.2348 2.5 11.5 2.5C11.7652 2.5 12.0196 2.60536 12.2071 2.79289C12.3946 2.98043 12.5 3.23478 12.5 3.5ZM14 3.5C14 4.16304 13.7366 4.79893 13.2678 5.26777C12.7989 5.73661 12.163 6 11.5 6C10.837 6 10.2011 5.73661 9.73223 5.26777C9.26339 4.79893 9 4.16304 9 3.5C9 2.83696 9.26339 2.20107 9.73223 1.73223C10.2011 1.26339 10.837 1 11.5 1C12.163 1 12.7989 1.26339 13.2678 1.73223C13.7366 2.20107 14 2.83696 14 3.5Z" fill="#FAFAFA"/>
</svg>
