<svg width="14" height="13" viewBox="0 0 14 13" fill="none" xmlns="http://www.w3.org/2000/svg">
<path d="M7.66658 0.5C8.00296 0.499894 8.32696 0.626938 8.57361 0.855665C8.82027 1.08439 8.97135 1.3979 8.99658 1.73333L8.99991 1.83333V4.5H10.9999C11.3363 4.49989 11.6603 4.62694 11.9069 4.85566C12.1536 5.08439 12.3047 5.3979 12.3299 5.73333L12.3332 5.83333V11.1667H12.9999C13.1698 11.1669 13.3333 11.2319 13.4568 11.3486C13.5804 11.4652 13.6547 11.6246 13.6647 11.7943C13.6747 11.9639 13.6195 12.1309 13.5104 12.2612C13.4013 12.3915 13.2466 12.4753 13.0779 12.4953L12.9999 12.5H0.999913C0.829993 12.4998 0.666558 12.4347 0.543 12.3181C0.419443 12.2015 0.345089 12.042 0.335131 11.8724C0.325173 11.7028 0.380362 11.5357 0.489422 11.4054C0.598483 11.2751 0.753182 11.1914 0.921912 11.1713L0.999913 11.1667H1.66658V1.83333C1.66647 1.49695 1.79352 1.17296 2.02224 0.926301C2.25097 0.679647 2.56448 0.528562 2.89991 0.503333L2.99991 0.5H7.66658ZM10.9999 5.83333H8.99991V11.1667H10.9999V5.83333ZM7.66658 1.83333H2.99991V11.1667H7.66658V1.83333ZM6.33325 8.5V9.83333H4.33325V8.5H6.33325ZM6.33325 5.83333V7.16667H4.33325V5.83333H6.33325ZM6.33325 3.16667V4.5H4.33325V3.16667H6.33325Z" fill="#0A0A0B"/>
</svg>
